<?xml version="1.0" standalone="no"?><svg xmlns="http://www.w3.org/2000/svg" viewBox="0 0 1440 320"><path fill="#0099ff" fill-opacity="1" d="M0,192L21.8,213.3C43.6,235,87,277,131,293.3C174.5,309,218,299,262,282.7C305.5,267,349,245,393,218.7C436.4,192,480,160,524,165.3C567.3,171,611,213,655,218.7C698.2,224,742,192,785,165.3C829.1,139,873,117,916,122.7C960,128,1004,160,1047,154.7C1090.9,149,1135,107,1178,122.7C1221.8,139,1265,213,1309,245.3C1352.7,277,1396,267,1418,261.3L1440,256L1440,0L1418.2,0C1396.4,0,1353,0,1309,0C1265.5,0,1222,0,1178,0C1134.5,0,1091,0,1047,0C1003.6,0,960,0,916,0C872.7,0,829,0,785,0C741.8,0,698,0,655,0C610.9,0,567,0,524,0C480,0,436,0,393,0C349.1,0,305,0,262,0C218.2,0,175,0,131,0C87.3,0,44,0,22,0L0,0Z"></path></svg>